# 3ds Max Wavefront OBJ Exporter v0.99 - (c)2007 guruware
# File Created: 13.03.2024 00:35:17

mtllib cuerpo.mtl

#
# object Cube
#

#
# object Plano
#

#
# object cuerpo_cola
#

v  -1.8851 -0.2640 -0.1438
v  -1.9017 -0.2454 0.0699
v  -1.9860 -0.0455 0.0841
v  -1.9696 -0.0640 -0.1297
v  -2.5875 -0.1247 0.0060
v  -2.5939 -0.1175 0.0897
v  -2.2780 -0.2600 0.1138
v  -2.2613 -0.2786 -0.0999
v  -2.2729 -0.0705 0.1172
v  -2.2565 -0.0890 -0.0964
v  -2.7626 0.0445 0.0783
v  -2.5920 -0.0432 0.0911
v  -2.7677 0.0344 0.0787
v  -2.5855 -0.0505 0.0074
v  -2.7667 0.0332 0.0651
v  -2.7615 0.0433 0.0648
# 16 vertices

vn -0.9217 -0.3860 -0.0378
vn -0.9217 -0.3860 -0.0377
vn 0.4138 0.9091 -0.0469
vn 0.4137 0.9092 -0.0469
vn -0.0492 0.9947 -0.0904
vn 0.0973 -0.9909 0.0934
vn 0.0971 -0.9909 0.0932
vn -0.1168 0.0212 -0.9929
vn -0.1166 0.0213 -0.9930
vn 0.1166 -0.0213 0.9929
vn 0.1168 -0.0209 0.9929
vn 0.0726 0.0056 -0.9973
vn 0.0725 0.0056 -0.9974
vn -0.0914 -0.9927 0.0789
vn -0.0913 -0.9927 0.0790
vn 0.0832 0.0158 -0.9964
vn 0.0833 0.0161 -0.9964
vn 0.2981 -0.0253 0.9542
vn 0.2981 -0.0255 0.9542
vn 0.8895 -0.4442 0.1073
vn 0.2888 -0.0350 0.9567
vn 0.2888 -0.0350 0.9568
vn 0.6586 0.7524 -0.0145
vn 0.6585 0.7524 -0.0144
vn -0.4594 -0.8873 0.0413
vn -0.4592 -0.8874 0.0416
# 26 vertex normals

vt 1.0000 0.0000 0.0000
vt 1.0000 1.0000 0.0000
vt 0.0000 1.0000 0.0000
vt 0.0000 0.0000 0.0000
# 4 texture coords

o cuerpo_cola
g cuerpo_cola
usemtl goddard_base_Goddard_None
s off
f 1/1/1 2/2/1 3/3/1 
f 3/3/2 4/4/2 1/1/2 
f 5/1/3 6/2/3 7/2/3 
f 7/2/4 8/1/4 5/1/4 
f 8/1/5 7/2/5 2/2/5 
f 2/2/5 1/1/5 8/1/5 
f 9/3/6 10/4/6 4/4/6 
f 4/4/7 3/3/7 9/3/7 
f 7/2/8 9/3/8 3/3/8 
f 3/3/9 2/2/9 7/2/9 
f 10/4/10 8/1/10 1/1/10 
f 1/1/11 4/4/11 10/4/11 
f 11/3/12 12/3/13 6/2/13 
f 6/2/13 13/2/13 11/3/13 
f 12/3/14 14/4/14 10/4/14 
f 10/4/15 9/3/15 12/3/15 
f 9/3/16 7/2/16 6/2/16 
f 6/2/17 12/3/17 9/3/17 
f 5/1/18 8/1/18 10/4/18 
f 10/4/19 14/4/19 5/1/19 
f 11/3/20 13/2/20 15/1/20 
f 15/1/20 16/4/20 11/3/20 
f 14/4/21 16/4/22 15/1/22 
f 15/1/22 5/1/22 14/4/22 
f 13/2/23 6/2/23 5/1/23 
f 5/1/24 15/1/24 13/2/24 
f 16/4/25 14/4/25 12/3/25 
f 12/3/26 11/3/26 16/4/26 
# 0 polygons - 28 triangles

#
# object cuerpo_cola001
#

v  -2.2097 0.4548 -1.1891
v  -2.2097 0.4548 1.2817
v  0.6585 1.6734 1.2817
v  0.6585 1.6734 -1.1891
v  -1.6167 -0.9605 1.2817
v  1.2515 0.2582 1.2817
v  -1.6167 -0.9605 -1.1891
v  1.2515 0.2582 -1.1891
# 8 vertices

vn -0.3910 0.9204 -0.0000
vn -0.0000 -0.0000 1.0000
vn -0.9223 -0.3864 -0.0000
vn 0.3911 -0.9204 -0.0000
vn 0.9223 0.3865 -0.0000
vn -0.0000 -0.0000 -1.0000
# 6 vertex normals

vt 0.8750 0.5000 0.0000
vt 0.8750 0.7500 0.0000
vt 0.6250 0.7500 0.0000
vt 0.6250 0.5000 0.0000
vt 0.6250 1.0000 0.0000
vt 0.3750 1.0000 0.0000
vt 0.3750 0.7500 0.0000
vt 0.6250 0.0000 0.0000
vt 0.6250 0.2500 0.0000
vt 0.3750 0.2500 0.0000
vt 0.3750 0.0000 0.0000
vt 0.3750 0.5000 0.0000
vt 0.1250 0.7500 0.0000
vt 0.1250 0.5000 0.0000
# 14 texture coords

o cuerpo_cola001
g cuerpo_cola001
usemtl goddard_base_Goddard_Material
s off
f 17/5/27 18/6/27 19/7/27 
f 19/7/27 20/8/27 17/5/27 
f 19/7/28 18/9/28 21/10/28 
f 21/10/28 22/11/28 19/7/28 
f 18/12/29 17/13/29 23/14/29 
f 23/14/29 21/15/29 18/12/29 
f 24/16/30 22/11/30 21/17/30 
f 21/17/30 23/18/30 24/16/30 
f 20/8/31 19/7/31 22/11/31 
f 22/11/31 24/16/31 20/8/31 
f 17/13/32 20/8/32 24/16/32 
f 24/16/32 23/14/32 17/13/32 
# 0 polygons - 12 triangles

