# 3ds Max Wavefront OBJ Exporter v0.99 - (c)2007 guruware
# File Created: 01.04.2024 12:26:42

mtllib dadoNull.mtl

#
# object Box001
#

v  -5.0639 0.0000 4.6538
v  -5.0639 0.0000 -5.3462
v  4.9361 0.0000 -5.3462
v  4.9361 0.0000 4.6538
v  -5.0639 10.0000 4.6538
v  4.9361 10.0000 4.6538
v  4.9361 10.0000 -5.3462
v  -5.0639 10.0000 -5.3462
# 8 vertices

vn -0.5774 -0.5774 0.5774
vn -0.5774 -0.5774 -0.5774
vn 0.5774 -0.5774 -0.5774
vn 0.5774 -0.5774 0.5774
vn -0.5774 0.5774 0.5774
vn 0.5774 0.5774 0.5774
vn 0.5774 0.5774 -0.5774
vn -0.5774 0.5774 -0.5774
# 8 vertex normals

vt 2.1592 -0.0927 0.0000
vt 2.1592 0.9073 0.0000
vt 1.1592 0.9073 0.0000
vt 1.1592 -0.0927 0.0000
vt 0.7454 0.3424 0.0000
vt 0.9976 0.3424 0.0000
vt 0.9976 0.6601 0.0000
vt 0.7454 0.6601 0.0000
vt 0.5103 0.3462 0.0000
vt 0.7328 0.3462 0.0000
vt 0.7328 0.6558 0.0000
vt 0.5103 0.6558 0.0000
vt 0.2542 0.3399 0.0000
vt 0.4883 0.3399 0.0000
vt 0.4883 0.6588 0.0000
vt 0.2542 0.6588 0.0000
vt -0.2434 1.2984 0.0000
vt 0.7566 1.2984 0.0000
vt 0.7566 2.2984 0.0000
vt -0.2434 2.2984 0.0000
vt 1.1187 1.1361 0.0000
vt 2.1187 1.1361 0.0000
vt 2.1187 2.1361 0.0000
vt 1.1187 2.1361 0.0000
# 24 texture coords

o Box001
g Box001
usemtl 01___Default
s 2
f 1/1/1 2/2/2 3/3/3 4/4/4 
s 4
f 5/5/5 6/6/6 7/7/7 8/8/8 
s 8
f 1/9/1 4/10/4 6/11/6 5/12/5 
s 16
f 4/13/4 3/14/3 7/15/7 6/16/6 
s 32
f 3/17/3 2/18/2 8/19/8 7/20/7 
s 64
f 2/21/2 1/22/1 5/23/5 8/24/8 
# 6 polygons

